<svg width="86" height="56" viewBox="0 0 86 56" fill="none" xmlns="http://www.w3.org/2000/svg">
<path d="M1 55.5434H4.03173C5.25331 55.5434 6.30645 55.177 7.19117 54.444C8.07589 53.7111 8.59228 52.6857 8.74035 51.3679L8.79032 51.068C8.94209 49.7465 8.65891 48.723 7.94077 47.9974C7.22263 47.2682 6.25278 46.9036 5.0312 46.9036H1.99947L1 55.5434ZM2.50476 54.3718L3.2377 48.0807H4.86462C5.72713 48.0807 6.39159 48.3306 6.85801 48.8303C7.32443 49.3301 7.50212 50.0686 7.39106 51.0458L7.32998 51.4012C7.21893 52.3748 6.87467 53.1133 6.2972 53.6167C5.71972 54.1201 4.99788 54.3718 4.13168 54.3718H2.50476Z" fill="black"/>
<path d="M9.71206 55.5434H11.1058L12.0997 46.9036H10.7115L9.71206 55.5434Z" fill="black"/>
<path d="M12.7105 53.1114C12.6216 53.9406 12.877 54.581 13.4767 55.0326C14.0764 55.4842 14.9149 55.71 15.9921 55.71C17.0767 55.71 17.9577 55.4842 18.6351 55.0326C19.3162 54.581 19.7012 53.9684 19.7901 53.1947C19.8752 52.458 19.7086 51.9009 19.2903 51.5234C18.8757 51.1421 18.1428 50.8182 17.0915 50.5516C16.0957 50.3036 15.4442 50.0815 15.137 49.8853C14.8334 49.6891 14.702 49.443 14.7427 49.1468C14.7871 48.747 14.9759 48.4417 15.3091 48.2307C15.6423 48.0197 16.1457 47.9142 16.8194 47.9142C17.5005 47.9142 17.9929 48.0419 18.2964 48.2973C18.5999 48.5527 18.7295 48.8933 18.6851 49.319L18.6684 49.4356H20.0288L20.0455 49.2968C20.1232 48.5638 19.8845 47.953 19.3292 47.4644C18.7776 46.9758 17.9836 46.7314 16.9471 46.7314C15.9032 46.7314 15.0611 46.9554 14.4207 47.4033C13.784 47.8475 13.4249 48.4379 13.3435 49.1746C13.262 49.8335 13.4194 50.3536 13.8154 50.7349C14.2152 51.1125 14.9463 51.4327 16.0087 51.6955C17.0674 51.9546 17.7393 52.1897 18.0243 52.4007C18.3131 52.6117 18.4352 52.893 18.3908 53.2447C18.3464 53.6333 18.1317 53.9461 17.7467 54.1831C17.3617 54.42 16.8194 54.5384 16.1198 54.5384C15.4201 54.5384 14.8945 54.4181 14.5428 54.1775C14.1912 53.9369 14.0394 53.5723 14.0875 53.0836L14.1042 52.9337H12.7271L12.7105 53.1114Z" fill="black"/>
<path d="M20.8895 48.1085H23.9212L23.055 55.5434H24.4432L25.3038 48.1085H28.33L28.4632 46.9036H21.0283L20.8895 48.1085Z" fill="black"/>
<path d="M28.4688 55.5434H29.8514L30.2345 52.2174H32.2113C33.2181 52.21 34.0288 51.9657 34.6433 51.4845C35.2615 51.0033 35.6169 50.361 35.7094 49.5577C35.8057 48.7322 35.6021 48.0844 35.0986 47.6143C34.5989 47.1405 33.8419 46.9036 32.8276 46.9036H29.4683L28.4688 55.5434ZM30.3567 51.0569L30.7121 48.0863H32.6277C33.3162 48.0863 33.7845 48.2195 34.0325 48.4861C34.2805 48.7526 34.3768 49.1154 34.3213 49.5744C34.2694 50.026 34.0862 50.3869 33.7715 50.6571C33.4606 50.9237 32.9609 51.0569 32.2723 51.0569H30.3567ZM33.9437 55.5434H35.4984L33.7049 51.6899L32.1613 51.5844L33.9437 55.5434Z" fill="black"/>
<path d="M36.5312 55.5434H37.9249L38.9188 46.9036H37.5307L36.5312 55.5434Z" fill="black"/>
<path d="M39.7073 55.5434H43.261C44.2086 55.5434 44.9934 55.3306 45.6153 54.9049C46.2409 54.4792 46.5999 53.8684 46.6925 53.0725C46.7591 52.5025 46.6647 52.0453 46.4093 51.701C46.1576 51.3568 45.8115 51.1254 45.371 51.007V50.9848C45.7522 50.8626 46.0836 50.6497 46.3649 50.3462C46.6499 50.039 46.8183 49.6447 46.8702 49.1635C46.9627 48.3787 46.7591 47.8068 46.2594 47.4477C45.7634 47.085 45.036 46.9036 44.0772 46.9036H40.7068L39.7073 55.5434ZM41.1954 54.4163L41.523 51.5955H43.6441C44.2734 51.5955 44.7232 51.7195 44.9934 51.9676C45.2636 52.2156 45.3728 52.5561 45.321 52.9892C45.2655 53.4446 45.073 53.7962 44.7435 54.0442C44.4178 54.2923 43.9421 54.4163 43.3165 54.4163H41.1954ZM41.6452 50.5183L41.9394 48.0363H43.8773C44.4992 48.04 44.936 48.1474 45.1877 48.3584C45.4432 48.5657 45.5468 48.8748 45.4987 49.2856C45.4506 49.678 45.2747 49.9816 44.9712 50.1963C44.6676 50.411 44.2031 50.5183 43.5775 50.5183H41.6452Z" fill="black"/>
<path d="M48.0584 52.3507C47.9289 53.4871 48.1732 54.3311 48.7914 54.8827C49.4133 55.4342 50.2369 55.71 51.2623 55.71C52.284 55.71 53.1613 55.4361 53.8942 54.8882C54.6272 54.3367 55.0566 53.4908 55.1824 52.3507L55.8265 46.9036H54.3551L53.7054 52.3562C53.624 53.104 53.3723 53.65 52.9503 53.9943C52.532 54.3385 51.9971 54.5107 51.3456 54.5107C50.6904 54.5107 50.1869 54.3385 49.8353 53.9943C49.4836 53.6463 49.3485 53.1003 49.4299 52.3562L50.0796 46.9036H48.697L48.0584 52.3507Z" fill="black"/>
<path d="M56.5928 48.1085H59.6245L58.7583 55.5434H60.1465L61.0071 48.1085H64.0333L64.1666 46.9036H56.7316L56.5928 48.1085Z" fill="black"/>
<path d="M64.1832 55.5434H65.5769L66.5709 46.9036H65.1827L64.1832 55.5434Z" fill="black"/>
<path d="M67.4981 51.3623C67.3353 52.7912 67.5981 53.874 68.2866 54.6106C68.9788 55.3436 69.9283 55.71 71.1351 55.71C72.3419 55.71 73.3747 55.3436 74.2335 54.6106C75.096 53.874 75.6087 52.7912 75.7715 51.3623L75.8215 51.0736C75.9844 49.6484 75.7179 48.5694 75.0219 47.8364C74.3297 47.0998 73.3802 46.7314 72.1735 46.7314C70.963 46.7314 69.9302 47.0998 69.0751 47.8364C68.22 48.5694 67.711 49.6484 67.5481 51.0736L67.4981 51.3623ZM68.8974 51.4623L68.9751 50.9792C69.0899 49.9649 69.4231 49.2042 69.9746 48.6971C70.5299 48.1862 71.2184 47.9308 72.0402 47.9308C72.8583 47.9345 73.4876 48.1899 73.9281 48.6971C74.3723 49.2042 74.537 49.9649 74.4223 50.9792L74.3445 51.4678C74.2298 52.4784 73.8929 53.2391 73.3339 53.75C72.7787 54.2608 72.092 54.5162 71.2739 54.5162C70.4521 54.5162 69.821 54.2608 69.3805 53.75C68.9437 53.2391 68.7827 52.4766 68.8974 51.4623Z" fill="black"/>
<path d="M76.7322 55.5434H78.0426L78.7089 49.7521C78.7237 49.6299 78.7329 49.4985 78.7366 49.3578C78.7403 49.2135 78.7366 49.0821 78.7255 48.9636H78.7977C78.831 49.0635 78.8792 49.182 78.9421 49.319C79.005 49.4559 79.0735 49.5873 79.1475 49.7132L82.5902 55.5434H84.0005L85 46.9036H83.684L83.0122 52.7172C82.9974 52.843 82.9881 52.9744 82.9844 53.1114C82.9844 53.2447 82.99 53.3705 83.0011 53.489L82.94 53.4945C82.8993 53.3909 82.8456 53.2743 82.779 53.1447C82.716 53.0152 82.6549 52.8911 82.5957 52.7727L79.1253 46.9036H77.7316L76.7322 55.5434Z" fill="black"/>
<path d="M1 55.5434H4.03173C5.25331 55.5434 6.30645 55.177 7.19117 54.444C8.07589 53.7111 8.59228 52.6857 8.74035 51.3679L8.79032 51.068C8.94209 49.7465 8.65891 48.723 7.94077 47.9974C7.22263 47.2682 6.25278 46.9036 5.0312 46.9036H1.99947L1 55.5434ZM2.50476 54.3718L3.2377 48.0807H4.86462C5.72713 48.0807 6.39159 48.3306 6.85801 48.8303C7.32443 49.3301 7.50212 50.0686 7.39106 51.0458L7.32998 51.4012C7.21893 52.3748 6.87467 53.1133 6.2972 53.6167C5.71972 54.1201 4.99788 54.3718 4.13168 54.3718H2.50476Z" stroke="black" stroke-width="0.5"/>
<path d="M9.71206 55.5434H11.1058L12.0997 46.9036H10.7115L9.71206 55.5434Z" stroke="black" stroke-width="0.5"/>
<path d="M12.7105 53.1114C12.6216 53.9406 12.877 54.581 13.4767 55.0326C14.0764 55.4842 14.9149 55.71 15.9921 55.71C17.0767 55.71 17.9577 55.4842 18.6351 55.0326C19.3162 54.581 19.7012 53.9684 19.7901 53.1947C19.8752 52.458 19.7086 51.9009 19.2903 51.5234C18.8757 51.1421 18.1428 50.8182 17.0915 50.5516C16.0957 50.3036 15.4442 50.0815 15.137 49.8853C14.8334 49.6891 14.702 49.443 14.7427 49.1468C14.7871 48.747 14.9759 48.4417 15.3091 48.2307C15.6423 48.0197 16.1457 47.9142 16.8194 47.9142C17.5005 47.9142 17.9929 48.0419 18.2964 48.2973C18.5999 48.5527 18.7295 48.8933 18.6851 49.319L18.6684 49.4356H20.0288L20.0455 49.2968C20.1232 48.5638 19.8845 47.953 19.3292 47.4644C18.7776 46.9758 17.9836 46.7314 16.9471 46.7314C15.9032 46.7314 15.0611 46.9554 14.4207 47.4033C13.784 47.8475 13.4249 48.4379 13.3435 49.1746C13.262 49.8335 13.4194 50.3536 13.8154 50.7349C14.2152 51.1125 14.9463 51.4327 16.0087 51.6955C17.0674 51.9546 17.7393 52.1897 18.0243 52.4007C18.3131 52.6117 18.4352 52.893 18.3908 53.2447C18.3464 53.6333 18.1317 53.9461 17.7467 54.1831C17.3617 54.42 16.8194 54.5384 16.1198 54.5384C15.4201 54.5384 14.8945 54.4181 14.5428 54.1775C14.1912 53.9369 14.0394 53.5723 14.0875 53.0836L14.1042 52.9337H12.7271L12.7105 53.1114Z" stroke="black" stroke-width="0.5"/>
<path d="M20.8895 48.1085H23.9212L23.055 55.5434H24.4432L25.3038 48.1085H28.33L28.4632 46.9036H21.0283L20.8895 48.1085Z" stroke="black" stroke-width="0.5"/>
<path d="M28.4688 55.5434H29.8514L30.2345 52.2174H32.2113C33.2181 52.21 34.0288 51.9657 34.6433 51.4845C35.2615 51.0033 35.6169 50.361 35.7094 49.5577C35.8057 48.7322 35.6021 48.0844 35.0986 47.6143C34.5989 47.1405 33.8419 46.9036 32.8276 46.9036H29.4683L28.4688 55.5434ZM30.3567 51.0569L30.7121 48.0863H32.6277C33.3162 48.0863 33.7845 48.2195 34.0325 48.4861C34.2805 48.7526 34.3768 49.1154 34.3213 49.5744C34.2694 50.026 34.0862 50.3869 33.7715 50.6571C33.4606 50.9237 32.9609 51.0569 32.2723 51.0569H30.3567ZM33.9437 55.5434H35.4984L33.7049 51.6899L32.1613 51.5844L33.9437 55.5434Z" stroke="black" stroke-width="0.5"/>
<path d="M36.5312 55.5434H37.9249L38.9188 46.9036H37.5307L36.5312 55.5434Z" stroke="black" stroke-width="0.5"/>
<path d="M39.7073 55.5434H43.261C44.2086 55.5434 44.9934 55.3306 45.6153 54.9049C46.2409 54.4792 46.5999 53.8684 46.6925 53.0725C46.7591 52.5025 46.6647 52.0453 46.4093 51.701C46.1576 51.3568 45.8115 51.1254 45.371 51.007V50.9848C45.7522 50.8626 46.0836 50.6497 46.3649 50.3462C46.6499 50.039 46.8183 49.6447 46.8702 49.1635C46.9627 48.3787 46.7591 47.8068 46.2594 47.4477C45.7634 47.085 45.036 46.9036 44.0772 46.9036H40.7068L39.7073 55.5434ZM41.1954 54.4163L41.523 51.5955H43.6441C44.2734 51.5955 44.7232 51.7195 44.9934 51.9676C45.2636 52.2156 45.3728 52.5561 45.321 52.9892C45.2655 53.4446 45.073 53.7962 44.7435 54.0442C44.4178 54.2923 43.9421 54.4163 43.3165 54.4163H41.1954ZM41.6452 50.5183L41.9394 48.0363H43.8773C44.4992 48.04 44.936 48.1474 45.1877 48.3584C45.4432 48.5657 45.5468 48.8748 45.4987 49.2856C45.4506 49.678 45.2747 49.9816 44.9712 50.1963C44.6676 50.411 44.2031 50.5183 43.5775 50.5183H41.6452Z" stroke="black" stroke-width="0.5"/>
<path d="M48.0584 52.3507C47.9289 53.4871 48.1732 54.3311 48.7914 54.8827C49.4133 55.4342 50.2369 55.71 51.2623 55.71C52.284 55.71 53.1613 55.4361 53.8942 54.8882C54.6272 54.3367 55.0566 53.4908 55.1824 52.3507L55.8265 46.9036H54.3551L53.7054 52.3562C53.624 53.104 53.3723 53.65 52.9503 53.9943C52.532 54.3385 51.9971 54.5107 51.3456 54.5107C50.6904 54.5107 50.1869 54.3385 49.8353 53.9943C49.4836 53.6463 49.3485 53.1003 49.4299 52.3562L50.0796 46.9036H48.697L48.0584 52.3507Z" stroke="black" stroke-width="0.5"/>
<path d="M56.5928 48.1085H59.6245L58.7583 55.5434H60.1465L61.0071 48.1085H64.0333L64.1666 46.9036H56.7316L56.5928 48.1085Z" stroke="black" stroke-width="0.5"/>
<path d="M64.1832 55.5434H65.5769L66.5709 46.9036H65.1827L64.1832 55.5434Z" stroke="black" stroke-width="0.5"/>
<path d="M67.4981 51.3623C67.3353 52.7912 67.5981 53.874 68.2866 54.6106C68.9788 55.3436 69.9283 55.71 71.1351 55.71C72.3419 55.71 73.3747 55.3436 74.2335 54.6106C75.096 53.874 75.6087 52.7912 75.7715 51.3623L75.8215 51.0736C75.9844 49.6484 75.7179 48.5694 75.0219 47.8364C74.3297 47.0998 73.3802 46.7314 72.1735 46.7314C70.963 46.7314 69.9302 47.0998 69.0751 47.8364C68.22 48.5694 67.711 49.6484 67.5481 51.0736L67.4981 51.3623ZM68.8974 51.4623L68.9751 50.9792C69.0899 49.9649 69.4231 49.2042 69.9746 48.6971C70.5299 48.1862 71.2184 47.9308 72.0402 47.9308C72.8583 47.9345 73.4876 48.1899 73.9281 48.6971C74.3723 49.2042 74.537 49.9649 74.4223 50.9792L74.3445 51.4678C74.2298 52.4784 73.8929 53.2391 73.3339 53.75C72.7787 54.2608 72.092 54.5162 71.2739 54.5162C70.4521 54.5162 69.821 54.2608 69.3805 53.75C68.9437 53.2391 68.7827 52.4766 68.8974 51.4623Z" stroke="black" stroke-width="0.5"/>
<path d="M76.7322 55.5434H78.0426L78.7089 49.7521C78.7237 49.6299 78.7329 49.4985 78.7366 49.3578C78.7403 49.2135 78.7366 49.0821 78.7255 48.9636H78.7977C78.831 49.0635 78.8792 49.182 78.9421 49.319C79.005 49.4559 79.0735 49.5873 79.1475 49.7132L82.5902 55.5434H84.0005L85 46.9036H83.684L83.0122 52.7172C82.9974 52.843 82.9881 52.9744 82.9844 53.1114C82.9844 53.2447 82.99 53.3705 83.0011 53.489L82.94 53.4945C82.8993 53.3909 82.8456 53.2743 82.779 53.1447C82.716 53.0152 82.6549 52.8911 82.5957 52.7727L79.1253 46.9036H77.7316L76.7322 55.5434Z" stroke="black" stroke-width="0.5"/>
<path d="M64.0661 1.68004L64.0638 1.68045C54.6531 3.60887 41.0558 12.0382 26.772 24.9431L26.7716 24.9434C23.9213 27.5145 20.2327 31.1911 17.2556 34.3415C15.7672 35.9166 14.4635 37.3528 13.5349 38.4483C13.1 38.9614 12.7547 39.3912 12.513 39.721C13.1665 39.7787 14.2607 39.8022 16.0219 39.8022H20.2541L21.1716 38.8404L21.1787 38.8334C21.7988 38.2186 23.3039 36.5544 24.5606 35.1228L24.5631 35.1199L24.5656 35.1171C27.1149 32.2745 29.0499 30.1633 30.4 28.7606C31.0737 28.0608 31.6109 27.5278 32.0105 27.1663C32.2087 26.987 32.3867 26.8373 32.5387 26.7285C32.6141 26.6745 32.6981 26.6196 32.7857 26.5754C32.8538 26.5411 33.0103 26.4672 33.207 26.4672C33.3932 26.4672 33.5433 26.5288 33.6357 26.5764C33.7343 26.6273 33.8199 26.6898 33.8899 26.7481C34.0299 26.8645 34.165 27.0121 34.2882 27.1656C34.5374 27.4759 34.7968 27.8843 35.0157 28.3184C35.4143 29.1089 36.7472 31.7096 37.9748 34.0913C39.2033 36.4744 40.4061 38.8595 40.6754 39.4041L40.6777 39.4088L40.68 39.4135L40.9424 39.9644L52.4788 40.0562H52.4792C58.7512 40.1039 62.1216 40.1029 64.2272 39.9315C65.2706 39.8465 65.9742 39.7215 66.5485 39.55C67.1194 39.3797 67.5904 39.1556 68.1723 38.8402L68.1775 38.8376C68.6887 38.5656 69.3403 37.9849 69.9292 37.2764C70.5182 36.5681 70.9688 35.8237 71.1431 35.2796L71.1446 35.2743C71.6099 33.8607 71.9188 32.395 72.0534 31.0708C72.1894 29.735 72.1429 28.5928 71.9335 27.8047L71.933 27.803C71.7956 27.2789 71.6061 26.4406 71.498 25.927L71.4943 25.9094L71.4914 25.8916C71.4867 25.8612 71.4587 25.7607 71.3753 25.5775C71.2971 25.4062 71.1877 25.1988 71.0508 24.9672C70.7793 24.5061 70.4191 23.9793 70.0391 23.4965L68.1363 21.1916L69.4521 20.0436C69.453 20.0428 69.454 20.0419 69.4549 20.0411C70.1472 19.4214 70.7745 18.1632 71.1517 16.565C71.5232 14.99 71.6217 13.2056 71.3597 11.6445C71.2692 11.123 71.146 10.5456 71.0204 10.0427C70.8901 9.5227 70.7693 9.13327 70.6911 8.95838L70.6878 8.95075L70.6845 8.94303C70.4135 8.29834 69.905 7.51748 69.3265 6.82561C68.738 6.12165 68.1514 5.59864 67.7582 5.39414C67.0237 5.0196 66.5376 4.75639 66.223 4.52626C66.0571 4.40481 65.9098 4.27189 65.7913 4.11008C65.6676 3.94085 65.6013 3.77423 65.5582 3.62067C65.4961 3.39787 65.5236 3.14732 65.6686 2.93282C65.7908 2.75174 65.9572 2.65558 66.0652 2.60498C66.2798 2.50479 66.548 2.45663 66.8048 2.42565C67.3464 2.36034 68.1803 2.3372 69.3384 2.3372C71.1337 2.3372 72.4992 2.46147 73.7217 2.89224C71.237 1.33523 67.9401 0.874469 64.0661 1.68004ZM56.6991 25.2608H56.6996C60.0604 25.3081 61.9353 25.3399 63.028 25.4339C63.5724 25.4808 63.9841 25.5471 64.3092 25.6648C64.6726 25.7963 64.9005 25.9816 65.0915 26.196C65.6525 26.8202 65.8685 27.728 65.8491 28.5596C65.8302 29.3959 65.5705 30.3034 65.001 30.967L64.1543 32.0161H54.7683C53.9235 32.0161 53.154 32.0179 52.4532 32.0196C51.0597 32.0228 49.938 32.0253 49.0327 32.0121C47.6851 31.9924 46.7402 31.9379 46.0492 31.7749C45.3021 31.5986 44.8173 31.2874 44.4188 30.7799C44.2387 30.5503 44.0842 30.2912 43.9345 30.0263C43.8778 29.9258 43.8224 29.8258 43.7655 29.723C43.6636 29.5389 43.5565 29.3456 43.4269 29.1232C42.2674 27.1332 41.3855 25.6151 40.7405 24.4453C40.1002 23.284 39.6718 22.4277 39.4387 21.7726C39.2085 21.1256 39.116 20.5342 39.3439 19.9898C39.5577 19.4793 40.0041 19.1599 40.3458 18.916L40.3545 18.9097L40.3634 18.9037C40.7467 18.6473 41.2737 18.2004 41.5439 17.9374L41.548 17.9333L41.5523 17.9293C42.5274 17.0108 44.0337 15.699 45.3468 14.603C46.0039 14.0545 46.6182 13.5554 47.0979 13.1835C47.337 12.9982 47.5486 12.8398 47.7182 12.7213C47.8025 12.6625 47.8833 12.6086 47.9561 12.5648C48.0084 12.5333 48.1102 12.4732 48.2253 12.4364C48.3696 12.3892 48.5534 12.3724 48.6726 12.3623C48.8334 12.3487 49.0374 12.3377 49.2736 12.3286C49.7476 12.3105 50.3789 12.2993 51.1104 12.2938C52.5754 12.2828 54.4622 12.2948 56.34 12.3226C58.2177 12.3505 60.0912 12.3942 61.5288 12.447C62.2471 12.4734 62.8617 12.5023 63.3156 12.5329C63.5416 12.5482 63.7359 12.5643 63.8861 12.5818C63.96 12.5905 64.033 12.6005 64.0979 12.6126L64.1002 12.613C64.141 12.6207 64.2571 12.6423 64.3694 12.6977C65.5729 13.2907 65.8918 14.8063 65.6923 16.2275C65.6226 16.7261 65.535 17.3089 65.1806 17.7784C64.8005 18.2822 64.2182 18.5378 63.4696 18.6906C62.7228 18.8431 61.6856 18.917 60.2495 18.9557C58.8038 18.9947 56.9071 18.9987 54.4214 18.9987C52.0609 18.9987 49.9088 19.0066 48.3411 19.0224C47.722 19.0287 47.196 19.0361 46.7852 19.0448C46.8129 19.1046 46.8421 19.1672 46.8726 19.2322C47.1892 19.9073 47.6399 20.83 48.1458 21.8435L48.146 21.8441L49.819 25.1711L56.6991 25.2608Z" fill="black"/>
<path d="M11.9238 39.6265L11.9229 39.6261M64.0661 1.68004L64.0638 1.68045C54.6531 3.60887 41.0558 12.0382 26.772 24.9431L26.7716 24.9434C23.9213 27.5145 20.2327 31.1911 17.2556 34.3415C15.7672 35.9166 14.4635 37.3528 13.5349 38.4483C13.1 38.9614 12.7547 39.3912 12.513 39.721C13.1665 39.7787 14.2607 39.8022 16.0219 39.8022H20.2541L21.1716 38.8404L21.1787 38.8334C21.7988 38.2186 23.3039 36.5544 24.5606 35.1228L24.5631 35.1199L24.5656 35.1171C27.1149 32.2745 29.0499 30.1633 30.4 28.7606C31.0737 28.0608 31.6109 27.5278 32.0105 27.1663C32.2087 26.987 32.3867 26.8373 32.5387 26.7285C32.6141 26.6745 32.6981 26.6196 32.7857 26.5754C32.8538 26.5411 33.0103 26.4672 33.207 26.4672C33.3932 26.4672 33.5433 26.5288 33.6357 26.5764C33.7343 26.6273 33.8199 26.6898 33.8899 26.7481C34.0299 26.8645 34.165 27.0121 34.2882 27.1656C34.5374 27.4759 34.7968 27.8843 35.0157 28.3184C35.4143 29.1089 36.7472 31.7096 37.9748 34.0913C39.2033 36.4744 40.4061 38.8595 40.6754 39.4041L40.6777 39.4088L40.68 39.4135L40.9424 39.9644L52.4788 40.0562H52.4792C58.7512 40.1039 62.1216 40.1029 64.2272 39.9315C65.2706 39.8465 65.9742 39.7215 66.5485 39.55C67.1194 39.3797 67.5904 39.1556 68.1723 38.8402L68.1775 38.8376C68.6887 38.5656 69.3403 37.9849 69.9292 37.2764C70.5182 36.5681 70.9688 35.8237 71.1431 35.2796L71.1446 35.2743C71.6099 33.8607 71.9188 32.395 72.0534 31.0708C72.1894 29.735 72.1429 28.5928 71.9335 27.8047L71.933 27.803C71.7956 27.2789 71.6061 26.4406 71.498 25.927L71.4943 25.9094L71.4914 25.8916C71.4867 25.8612 71.4587 25.7607 71.3753 25.5775C71.2971 25.4062 71.1877 25.1988 71.0508 24.9672C70.7793 24.5061 70.4191 23.9793 70.0391 23.4965L68.1363 21.1916L69.4521 20.0436C69.453 20.0428 69.454 20.0419 69.4549 20.0411C70.1472 19.4214 70.7745 18.1632 71.1517 16.565C71.5232 14.99 71.6217 13.2056 71.3597 11.6445C71.2692 11.123 71.146 10.5456 71.0204 10.0427C70.8901 9.5227 70.7693 9.13327 70.6911 8.95838L70.6878 8.95075L70.6845 8.94303C70.4135 8.29834 69.905 7.51748 69.3265 6.82561C68.738 6.12165 68.1514 5.59864 67.7582 5.39414C67.0237 5.0196 66.5376 4.75639 66.223 4.52626C66.0571 4.40481 65.9098 4.27189 65.7913 4.11008C65.6676 3.94085 65.6013 3.77423 65.5582 3.62067C65.4961 3.39787 65.5236 3.14732 65.6686 2.93282C65.7908 2.75174 65.9572 2.65558 66.0652 2.60498C66.2798 2.50479 66.548 2.45663 66.8048 2.42565C67.3464 2.36034 68.1803 2.3372 69.3384 2.3372C71.1337 2.3372 72.4992 2.46147 73.7217 2.89224C71.237 1.33523 67.9401 0.874469 64.0661 1.68004ZM56.6991 25.2608H56.6996C60.0604 25.3081 61.9353 25.3399 63.028 25.4339C63.5724 25.4808 63.9841 25.5471 64.3092 25.6648C64.6726 25.7963 64.9005 25.9816 65.0915 26.196C65.6525 26.8202 65.8685 27.728 65.8491 28.5596C65.8302 29.3959 65.5705 30.3034 65.001 30.967L64.1543 32.0161H54.7683C53.9235 32.0161 53.154 32.0179 52.4532 32.0196C51.0597 32.0228 49.938 32.0253 49.0327 32.0121C47.6851 31.9924 46.7402 31.9379 46.0492 31.7749C45.3021 31.5986 44.8173 31.2874 44.4188 30.7799C44.2387 30.5503 44.0842 30.2912 43.9345 30.0263C43.8778 29.9258 43.8224 29.8258 43.7655 29.723C43.6636 29.5389 43.5565 29.3456 43.4269 29.1232C42.2674 27.1332 41.3855 25.6151 40.7405 24.4453C40.1002 23.284 39.6718 22.4277 39.4387 21.7726C39.2085 21.1256 39.116 20.5342 39.3439 19.9898C39.5577 19.4793 40.0041 19.1599 40.3458 18.916L40.3545 18.9097L40.3634 18.9037C40.7467 18.6473 41.2737 18.2004 41.5439 17.9374L41.548 17.9333L41.5523 17.9293C42.5274 17.0108 44.0337 15.699 45.3468 14.603C46.0039 14.0545 46.6182 13.5554 47.0979 13.1835C47.337 12.9982 47.5486 12.8398 47.7182 12.7213C47.8025 12.6625 47.8833 12.6086 47.9561 12.5648C48.0084 12.5333 48.1102 12.4732 48.2253 12.4364C48.3696 12.3892 48.5534 12.3724 48.6726 12.3623C48.8334 12.3487 49.0374 12.3377 49.2736 12.3286C49.7476 12.3105 50.3789 12.2993 51.1104 12.2938C52.5754 12.2828 54.4622 12.2948 56.34 12.3226C58.2177 12.3505 60.0912 12.3942 61.5288 12.447C62.2471 12.4734 62.8617 12.5023 63.3156 12.5329C63.5416 12.5482 63.7359 12.5643 63.8861 12.5818C63.96 12.5905 64.033 12.6005 64.0979 12.6126L64.1002 12.613C64.141 12.6207 64.2571 12.6423 64.3694 12.6977C65.5729 13.2907 65.8918 14.8063 65.6923 16.2275C65.6226 16.7261 65.535 17.3089 65.1806 17.7784C64.8005 18.2822 64.2182 18.5378 63.4696 18.6906C62.7228 18.8431 61.6856 18.917 60.2495 18.9557C58.8038 18.9947 56.9071 18.9987 54.4214 18.9987C52.0609 18.9987 49.9088 19.0066 48.3411 19.0224C47.722 19.0287 47.196 19.0361 46.7852 19.0448C46.8129 19.1046 46.8421 19.1672 46.8726 19.2322C47.1892 19.9073 47.6399 20.83 48.1458 21.8435L48.146 21.8441L49.819 25.1711L56.6991 25.2608Z" stroke="black"/>
<path d="M30.5286 5.68155C30.2886 5.25405 30.0836 4.89657 29.9148 4.61133C29.8982 4.64144 29.8813 4.67206 29.8644 4.70313C29.532 5.40209 26.4552 11.3977 23.0044 18.1049C21.2821 21.4525 19.7222 24.5139 18.5898 26.7648C20.0741 25.2193 22.0419 23.233 23.6592 21.6254L23.6618 21.6228L23.6645 21.6202C23.9672 21.3255 24.6927 20.6542 25.2881 20.1386C25.8591 19.6135 26.4383 19.0742 26.6073 18.9086C26.6934 18.8143 26.8476 18.6697 27.012 18.5184C27.2171 18.3295 27.4924 18.0814 27.8175 17.7923C28.467 17.2147 29.3224 16.4673 30.2308 15.6884C31.0194 14.9882 31.7847 14.3132 32.4176 13.7551C33.232 13.0369 33.8271 12.512 33.9706 12.3754L33.9742 12.372L33.9779 12.3686C34.01 12.3389 34.0346 12.3153 34.0535 12.2968C34.0346 12.242 34.0009 12.158 33.9419 12.0331C33.8428 11.8235 33.6969 11.5484 33.4891 11.1655L33.4871 11.162L33.4852 11.1584C32.2454 8.81083 31.2414 6.95168 30.5286 5.68155Z" fill="black" stroke="black"/>
</svg>
